<svg width="1639" height="1322" viewBox="0 0 1639 1322" fill="none" xmlns="http://www.w3.org/2000/svg">
<path d="M933.709 1169.06C922.375 1153.19 907.033 1141.58 887.746 1137.23C870.927 1133.44 853.632 1134.09 836.536 1134.22L620.357 1135.89C601.843 1136.03 584.092 1152.07 584.952 1171.29C585.806 1190.36 600.512 1206.85 620.357 1206.7C683.683 1206.21 747.008 1205.72 810.333 1205.24C825.262 1205.12 840.2 1204.85 855.13 1204.9C858.483 1204.91 861.821 1205.09 865.171 1205.13C865.982 1205.13 866.568 1205.13 866.982 1205.11C867.085 1205.14 867.173 1205.17 867.308 1205.21C869.055 1205.69 870.848 1206.02 872.606 1206.47C871.99 1206.49 873.745 1207.59 874.627 1207.96C874.748 1208.2 875.006 1208.62 875.438 1209.28C876.039 1210.4 877.821 1213.83 877.895 1213.72C880.571 1220.49 882.78 1227.44 884.504 1234.51C888.618 1250.1 889.523 1253.36 890.115 1267.99C890.864 1286.47 905.864 1304.28 925.52 1303.4C944.062 1302.57 961.729 1287.81 960.926 1267.99C959.573 1234.59 953.711 1197.07 933.709 1169.06Z" fill="#E6E6E6"/>
<path d="M633.065 1248.96C629.005 1224.35 625.022 1199.73 620.883 1175.14C616.683 1150.19 608.105 1127.34 588.691 1110.97C583.503 1106.6 578.124 1102.51 572.723 1098.44C570.824 1097.01 568.927 1095.58 567.051 1094.11C566.938 1094.03 566.867 1093.97 566.769 1093.89C566.563 1093.72 566.316 1093.51 565.983 1093.22C557.891 1086.38 550.072 1079.22 542.625 1071.62C536.011 1064.87 529.686 1057.83 523.65 1050.5C522.142 1048.67 520.653 1046.82 519.184 1044.96C518.931 1044.64 517.569 1042.88 516.672 1041.73C515.838 1040.58 514.314 1038.51 514.058 1038.14C512.341 1035.72 510.655 1033.27 508.999 1030.79C497.722 1013.9 487.957 996.04 479.818 977.429C479.011 975.583 478.223 973.727 477.454 971.859C477.248 971.289 476.981 970.557 476.626 969.583C474.986 965.072 473.349 960.567 471.849 956.003C468.663 946.309 465.924 936.472 463.631 926.492C462.498 921.564 461.477 916.611 460.57 911.633C460.102 909.073 459.665 906.508 459.257 903.937C459.19 903.511 458.793 900.737 458.558 899.17C458.385 897.596 458.063 894.807 458.02 894.377C457.761 891.786 457.531 889.192 457.33 886.596C456.877 880.754 456.571 874.902 456.412 869.04C456.139 858.623 456.326 848.207 456.971 837.791C457.339 831.939 457.862 826.102 458.506 820.276C458.544 819.918 458.575 819.633 458.603 819.376C458.642 819.116 458.687 818.821 458.741 818.453C459.218 815.233 459.719 812.018 460.28 808.813C462.403 796.643 465.165 784.593 468.554 772.714C470.159 767.095 471.901 761.522 473.783 755.995C474.621 753.541 475.486 751.097 476.378 748.662C476.32 748.819 478.994 741.988 479.029 741.759C489.64 716.689 506.995 693.835 507.019 665.357C507.035 646.076 490.723 627.606 471.613 628.497C462.085 628.856 453.069 632.899 446.464 639.775C439.86 646.651 436.182 655.823 436.207 665.357C436.207 665.79 436.205 666.16 436.204 666.518C436.026 667.118 435.877 667.619 435.743 668.062C433.674 672.559 431.139 676.831 428.868 681.216C422.648 693.217 417.34 705.612 412.297 718.189C404.042 738.67 397.723 759.88 393.423 781.539C384.077 828.997 383.352 877.749 391.282 925.463C405.009 1009.14 450.28 1089.23 513.216 1143.07C518.678 1147.74 524.273 1152.26 529.921 1156.68C532.258 1158.51 534.614 1160.31 536.983 1162.1C538.102 1162.94 542.739 1166.6 540.699 1164.82C545.086 1168.57 546.933 1170.45 548.06 1173.21C548.223 1173.85 548.446 1174.71 548.747 1175.89C549.541 1179 550.295 1182.1 550.922 1185.26C556.4 1212.81 560.208 1240.82 564.784 1268.56C567.929 1287.61 591.386 1300.01 608.337 1294.3C628.067 1287.65 636.435 1269.37 633.065 1248.96Z" fill="#E6E6E6"/>
<path d="M937.29 1320.42C922.42 1320.46 908.143 1314.6 897.589 1304.12C887.036 1293.65 881.068 1279.42 880.995 1264.55V1224.16C838.71 1228.89 693.914 1227.8 652.409 1221.13V1262.93C652.297 1277.79 646.317 1292 635.772 1302.47C625.226 1312.93 610.971 1318.81 596.113 1318.81C581.256 1318.81 567 1312.93 556.455 1302.47C545.91 1292 539.93 1277.79 539.818 1262.93V1180.85C483.602 1149.62 436.739 1103.96 404.063 1048.57C371.388 993.183 354.085 930.078 353.939 865.771C353.939 755.504 403.912 652.642 491.044 583.558C547.697 538.489 616.529 511.384 688.701 505.725C698.497 504.957 708.353 504.568 717.996 504.568C751.969 504.568 905.244 509.816 943.702 520.88L1031.39 433.867C1032.68 432.571 1034.33 431.687 1036.12 431.33C1037.91 430.973 1039.77 431.157 1041.46 431.861C1043.16 432.537 1044.62 433.712 1045.64 435.231C1046.66 436.75 1047.2 438.543 1047.18 440.373V454.207L1064.25 437.297C1065.54 435.999 1067.19 435.114 1068.98 434.756C1070.77 434.398 1072.63 434.583 1074.32 435.287C1076.02 435.963 1077.47 437.138 1078.5 438.658C1079.52 440.178 1080.06 441.971 1080.04 443.802V598.402C1124.04 638.071 1157.58 687.981 1177.68 743.71C1197.78 799.439 1203.82 859.265 1195.27 917.888C1186.72 976.51 1163.84 1032.12 1128.66 1079.78C1093.48 1127.45 1047.08 1165.7 993.584 1191.15V1264.55C993.511 1279.42 987.544 1293.65 976.99 1304.12C966.437 1314.6 952.159 1320.46 937.29 1320.42V1320.42ZM885.421 1219.14V1264.55C885.532 1278.23 891.046 1291.32 900.761 1300.95C910.477 1310.59 923.606 1316 937.29 1316C950.973 1316 964.103 1310.59 973.818 1300.95C983.533 1291.32 989.047 1278.23 989.158 1264.55V1188.35L990.422 1187.75C1050.45 1159.27 1101.41 1114.7 1137.64 1059.01C1183.81 987.933 1203.02 902.679 1191.77 818.675C1180.53 734.671 1139.59 657.467 1076.35 601.036L1075.61 600.376V443.802C1075.63 442.851 1075.35 441.918 1074.82 441.128C1074.29 440.338 1073.53 439.731 1072.65 439.386C1071.76 439.009 1070.79 438.908 1069.85 439.094C1068.91 439.281 1068.05 439.748 1067.38 440.433L1042.75 464.82V440.373C1042.77 439.421 1042.49 438.488 1041.96 437.699C1041.43 436.909 1040.67 436.301 1039.78 435.957C1038.9 435.58 1037.92 435.48 1036.98 435.668C1036.04 435.856 1035.18 436.324 1034.51 437.011L944.939 525.887L943.666 525.488C907.915 514.299 752.227 508.994 717.996 508.994C708.468 508.994 698.728 509.378 689.049 510.138C617.754 515.727 549.758 542.503 493.794 587.026C407.727 655.265 358.364 756.864 358.364 865.771C358.512 929.509 375.722 992.046 408.209 1046.88C440.695 1101.72 487.273 1146.86 543.102 1177.62L544.244 1178.25V1262.93C544.358 1276.61 549.873 1289.7 559.588 1299.33C569.303 1308.97 582.431 1314.37 596.113 1314.37C609.796 1314.37 622.924 1308.97 632.639 1299.33C642.354 1289.7 647.869 1276.61 647.983 1262.93V1215.83L650.605 1216.32C687.904 1223.34 844.963 1224.45 882.92 1219.47L885.421 1219.14Z" fill="#E9E8F5"/>
<path d="M637.295 263.589L392.244 337.232C384.449 339.584 377.907 344.934 374.055 352.106C370.203 359.278 369.355 367.686 371.698 375.483C374.041 383.28 379.383 389.827 386.55 393.688C393.718 397.549 402.125 398.406 409.925 396.072L624.371 331.612L628.864 330.262C629.773 307.112 636.053 284.491 647.208 264.186C645.808 263.556 644.312 263.167 642.782 263.035C640.934 262.857 639.07 263.045 637.295 263.589Z" fill="#7D7499"/>
<path d="M405.687 411.773C402.434 411.765 399.266 410.735 396.63 408.828C393.994 406.922 392.024 404.235 390.998 401.148L375.675 354.908C375.035 352.977 374.781 350.939 374.929 348.91C375.077 346.881 375.623 344.902 376.536 343.084C377.449 341.266 378.711 339.646 380.25 338.316C381.79 336.986 383.576 335.972 385.507 335.332L584.954 269.234C586.884 268.594 588.922 268.341 590.951 268.488C592.98 268.636 594.96 269.181 596.777 270.094C598.595 271.007 600.216 272.269 601.546 273.808C602.876 275.347 603.89 277.133 604.53 279.063L619.853 325.303C621.128 329.106 620.873 333.256 619.141 336.874C617.409 340.492 614.337 343.294 610.575 344.686C610.39 344.755 610.204 344.82 610.017 344.881L410.575 410.977C408.999 411.503 407.348 411.771 405.687 411.773Z" fill="#2F2E41"/>
<path d="M779.204 181.47C738.95 181.486 700.282 197.164 671.383 225.187C642.485 253.209 625.625 291.377 624.371 331.612C624.327 333.183 624.305 334.776 624.305 336.369C624.305 367.005 633.39 396.954 650.41 422.427C667.431 447.9 691.623 467.753 719.927 479.477C748.231 491.201 779.376 494.269 809.423 488.292C839.471 482.315 867.071 467.563 888.734 445.9C910.397 424.236 925.15 396.636 931.127 366.589C937.104 336.541 934.036 305.396 922.312 277.092C910.588 248.788 890.735 224.596 865.261 207.575C839.788 190.555 809.84 181.47 779.204 181.47V181.47ZM779.204 486.843C739.309 486.801 701.059 470.934 672.849 442.724C644.639 414.514 628.772 376.265 628.731 336.369C628.731 334.311 628.775 332.276 628.863 330.262C630.062 300.786 639.898 272.313 657.149 248.383C674.399 224.453 698.304 206.121 725.89 195.668C753.475 185.215 783.525 183.101 812.303 189.589C841.08 196.077 867.316 210.882 887.747 232.161C908.178 253.44 921.904 280.256 927.217 309.273C932.53 338.291 929.196 368.23 917.63 395.368C906.064 422.506 886.777 445.645 862.165 461.909C837.553 478.173 808.704 486.844 779.204 486.843V486.843Z" fill="#E9E8F5"/>
<path d="M909.762 336.369C909.762 370.995 896.007 404.203 871.522 428.688C847.038 453.172 813.83 466.927 779.204 466.927C744.578 466.927 711.37 453.172 686.886 428.688C662.401 404.203 648.646 370.995 648.646 336.369C648.646 332.231 648.845 328.16 649.221 324.132C652.367 290.714 668.263 259.792 693.609 237.786C718.954 215.78 751.801 204.381 785.329 205.956C818.858 207.531 850.492 221.958 873.663 246.243C896.834 270.528 909.762 302.804 909.762 336.369V336.369Z" fill="#FF9C46"/>
<path d="M818.083 345.044C814.919 340.883 810.756 337.587 805.98 335.462C800.089 332.979 794.005 330.981 787.79 329.487V293.949C797.344 295.39 806.305 299.475 813.658 305.743L820.872 290.364C816.723 286.668 811.96 283.725 806.798 281.668C801.076 279.351 795.071 277.81 788.94 277.087V259.075H772.234V277.264C765.783 277.989 759.559 280.078 753.978 283.394C748.936 286.378 744.692 290.539 741.607 295.52C738.664 300.382 737.139 305.969 737.204 311.652C736.917 317.81 738.701 323.887 742.272 328.912C745.558 333.263 749.899 336.705 754.884 338.914C760.869 341.47 767.058 343.52 773.385 345.044V379.099C762.11 378.249 751.367 373.963 742.604 366.818L735.39 382.219C740.29 386.27 745.862 389.431 751.854 391.558C758.419 393.907 765.277 395.337 772.234 395.806V413.664H788.941V395.474C798.22 394.46 806.923 390.47 813.747 384.1C816.752 381.218 819.126 377.744 820.718 373.897C822.31 370.049 823.086 365.913 822.997 361.751C823.274 355.789 821.544 349.906 818.083 345.044V345.044ZM773.385 325.725C769.315 324.491 765.531 322.46 762.253 319.751C760.955 318.595 759.928 317.167 759.247 315.568C758.566 313.968 758.248 312.238 758.315 310.501C758.194 306.56 759.643 302.732 762.342 299.857C765.335 296.842 769.196 294.838 773.385 294.126V325.725ZM798.279 372.815C795.456 375.71 791.78 377.625 787.79 378.281V348.983C791.604 350.006 795.172 351.79 798.279 354.227C799.457 355.233 800.393 356.491 801.017 357.909C801.642 359.326 801.939 360.866 801.886 362.414C802.039 366.212 800.751 369.928 798.279 372.815V372.815Z" fill="#3C2C73"/>
<path d="M412.799 599.176C409.378 599.17 406.055 598.036 403.344 595.95C400.634 593.863 398.687 590.94 397.807 587.634L389.464 556.057C388.42 552.088 388.992 547.867 391.056 544.319C393.12 540.772 396.507 538.188 400.473 537.134L663.671 467.585C667.642 466.549 671.863 467.128 675.409 469.195C678.955 471.263 681.538 474.65 682.593 478.617L689.66 505.37L688.336 505.473C620.834 510.721 556.248 535.195 502.219 575.999L501.835 576.184L416.729 598.666C415.446 599.005 414.125 599.176 412.799 599.176V599.176Z" fill="#2F2E41"/>
<path d="M369.208 755.151C338.334 750.59 308.806 739.425 282.637 722.418C269.673 713.999 257.671 704.183 246.847 693.146C236.163 682.249 225.943 669.864 220.651 655.353C215.56 641.926 215.823 627.057 221.384 613.819C226.87 600.662 237.35 590.217 250.525 584.774C263.779 579.489 279.792 578.923 292.692 584.712C298.838 587.406 304.157 591.688 308.103 597.117C309.936 599.62 311.294 602.439 312.108 605.433C312.864 608.146 312.933 611.005 312.308 613.751C311.552 616.493 310.218 619.042 308.396 621.226C306.574 623.41 304.306 625.179 301.744 626.415C296.107 629.308 289.998 631.171 283.705 631.917C277.376 632.78 268.285 633.565 263.196 628.485C262.149 627.48 261.325 626.265 260.779 624.921C260.396 623.891 260.265 622.785 260.397 621.694C260.323 622.175 260.704 620.649 260.683 620.71C260.602 620.935 260.254 621.485 260.749 620.64C260.904 620.362 261.076 620.094 261.265 619.837C261.097 620.054 260.727 620.417 261.387 619.795C261.932 619.198 262.632 618.766 263.41 618.546C263.716 618.457 264.027 618.386 264.334 618.302C265.115 618.088 263.556 618.313 264.355 618.288C264.663 618.278 264.975 618.285 265.282 618.272C266.065 618.236 264.509 618.058 265.26 618.247C265.551 618.32 265.84 618.392 266.127 618.482C266.751 618.679 265.685 618.024 266.108 618.514C266.604 619.088 265.588 617.956 266.151 618.511C266.431 618.787 266.696 619.078 266.943 619.384C267.92 620.349 269.237 620.889 270.61 620.889C271.983 620.889 273.301 620.349 274.278 619.384C275.222 618.396 275.749 617.082 275.749 615.716C275.749 614.35 275.222 613.036 274.278 612.048C269.163 605.708 259.06 607.274 253.886 612.633C247.287 619.468 249.901 630.299 256.319 636.262C263.586 643.013 273.877 643.482 283.224 642.35C291.123 641.593 298.821 639.418 305.948 635.928C313.029 632.449 318.568 626.465 321.491 619.137C322.811 615.226 323.285 611.079 322.882 606.971C322.479 602.863 321.208 598.887 319.153 595.307C310.901 579.792 293.813 571.838 276.923 570.46C268.227 569.779 259.482 570.829 251.194 573.55C242.907 576.271 235.241 580.608 228.641 586.31C215.919 597.763 208.086 613.667 206.76 630.733C205.285 648.427 212.15 665.611 222.159 679.89C232.638 694.399 245.142 707.33 259.29 718.29C286.949 740.372 319.393 755.674 354.026 762.969C358.145 763.82 362.287 764.549 366.451 765.155C367.775 765.476 369.173 765.28 370.358 764.607C371.544 763.934 372.428 762.834 372.831 761.532C373.187 760.206 373.006 758.793 372.328 757.599C371.65 756.405 370.53 755.525 369.208 755.151L369.208 755.151Z" fill="#E9E8F5"/>
<path d="M863.525 529.715C818.29 529.077 773.198 530.225 728.248 533.159C712.883 534.162 699.59 539.593 699.59 548.72C699.59 556.351 712.777 565.291 728.248 564.281C773.175 561.347 818.267 560.199 863.525 560.837C900.422 561.357 900.4 530.235 863.525 529.715Z" fill="#CCCCCC"/>
<path d="M796.667 559.295C791.779 559.295 676.94 559.113 676.94 543.25C676.94 527.388 791.779 527.206 796.667 527.206C801.556 527.206 916.395 527.388 916.395 543.25C916.395 559.113 801.556 559.295 796.667 559.295ZM681.43 543.25C684.573 548.059 726.785 554.869 796.667 554.869C866.549 554.869 908.761 548.059 911.904 543.25C908.762 538.442 866.549 531.631 796.667 531.631C726.785 531.631 684.573 538.442 681.43 543.25V543.25Z" fill="#E9E8F5"/>
<path d="M1161.02 976.306C1186.44 975.601 1218.08 974.718 1242.46 956.913C1249.71 951.394 1255.68 944.354 1259.93 936.287C1264.18 928.22 1266.61 919.322 1267.06 910.215C1267.56 896.153 1262.48 883.878 1252.76 875.663C1240.03 864.905 1221.44 862.382 1201.4 868.27L1222.16 716.584L1206.92 714.496L1182.52 892.822L1195.25 886.984C1210 880.218 1230.25 876.774 1242.83 887.408C1245.92 890.188 1248.33 893.643 1249.86 897.505C1251.4 901.367 1252.03 905.531 1251.69 909.674C1251.32 916.452 1249.49 923.07 1246.33 929.078C1243.17 935.087 1238.76 940.344 1233.38 944.492C1214.41 958.347 1189.2 960.135 1160.59 960.934L1161.02 976.306Z" fill="#E9E8F5"/>
<path d="M1118.89 729.665H1036.06V745.045H1118.89V729.665Z" fill="#E9E8F5"/>
<path d="M450.281 669.911C446.594 669.9 443.032 668.575 440.233 666.176C437.433 663.777 435.579 660.459 435.004 656.817L429.948 624.55C429.316 620.492 430.32 616.349 432.74 613.031C435.159 609.712 438.797 607.489 442.853 606.849L711.784 564.711C715.842 564.079 719.984 565.084 723.303 567.503C726.621 569.922 728.844 573.559 729.484 577.616L734.54 609.884C735.172 613.942 734.168 618.085 731.748 621.403C729.329 624.722 725.692 626.945 721.635 627.585L452.705 669.722C451.903 669.848 451.093 669.911 450.281 669.911Z" fill="#2F2E41"/>
<path d="M338.984 291.774C401.313 291.774 451.84 241.247 451.84 178.919C451.84 116.591 401.313 66.0638 338.984 66.0638C276.656 66.0638 226.129 116.591 226.129 178.919C226.129 241.247 276.656 291.774 338.984 291.774Z" fill="#7D7499"/>
<path d="M402.881 208.12C406.488 206.858 409.783 204.839 412.544 202.198C414.371 200.315 415.764 198.055 416.626 195.577C417.488 193.099 417.798 190.462 417.534 187.852C417.38 185.991 416.798 184.192 415.834 182.593C414.87 180.995 413.549 179.641 411.975 178.637C407.89 176.126 402.494 176.22 397.045 178.746L396.416 134.693L391.991 134.756L392.73 186.545L396.099 184.336C400.005 181.778 405.618 179.923 409.656 182.407C410.655 183.065 411.488 183.944 412.092 184.976C412.696 186.008 413.053 187.166 413.136 188.359C413.323 190.303 413.088 192.265 412.448 194.111C411.808 195.957 410.777 197.643 409.427 199.055C404.63 203.815 397.529 205.41 389.425 206.869L390.209 211.224C394.517 210.57 398.758 209.531 402.881 208.12V208.12Z" fill="#2F2E41"/>
<path d="M441.987 131.601L418.42 135.17L419.082 139.546L442.649 135.976L441.987 131.601Z" fill="#2F2E41"/>
<path d="M367.598 142.864L344.031 146.434L344.693 150.809L368.26 147.24L367.598 142.864Z" fill="#2F2E41"/>
<path d="M413.564 667.938C409.505 667.93 405.546 666.686 402.212 664.371C398.877 662.057 396.327 658.782 394.9 654.982L317.09 446.601C307.579 421.044 308.595 392.759 319.913 367.95C331.232 343.141 351.93 323.835 377.465 314.268L440.734 290.643C443.181 289.723 445.785 289.296 448.397 289.387C451.009 289.478 453.577 290.084 455.954 291.171C458.325 292.231 460.461 293.752 462.238 295.646C464.014 297.541 465.395 299.77 466.3 302.204L610.437 574.349C611.373 576.803 611.814 579.417 611.736 582.043C611.657 584.668 611.06 587.252 609.979 589.645C608.898 592.039 607.354 594.195 605.436 595.989C603.519 597.784 601.265 599.182 598.805 600.102L420.524 666.673C418.298 667.508 415.941 667.937 413.564 667.938Z" fill="#2F2E41"/>
<path d="M421.538 297.81L564.552 489.057L467.781 299.817C466.982 297.609 465.755 295.58 464.172 293.846C462.588 292.112 460.679 290.708 458.552 289.712C456.426 288.716 454.124 288.149 451.778 288.043C449.432 287.937 447.088 288.294 444.88 289.094L421.538 297.81Z" fill="#E6E6E6"/>
<path d="M647.983 443.05L392.631 426.602C388.606 426.343 384.672 425.293 381.053 423.514C377.433 421.734 374.2 419.259 371.537 416.229C368.874 413.2 366.834 409.676 365.534 405.858C364.233 402.04 363.697 398.003 363.956 393.978C364.215 389.953 365.265 386.019 367.044 382.4C368.824 378.78 371.299 375.547 374.329 372.884C377.358 370.221 380.883 368.181 384.7 366.881C388.518 365.58 392.555 365.044 396.58 365.303L651.932 381.75C653.817 381.871 655.659 382.363 657.354 383.196C659.049 384.03 660.564 385.189 661.811 386.607C663.058 388.026 664.013 389.677 664.622 391.465C665.231 393.252 665.482 395.143 665.361 397.028L663.262 429.621C663.016 433.428 661.269 436.982 658.404 439.5C655.538 442.018 651.79 443.296 647.983 443.05Z" fill="#7D7499"/>
<path d="M579.749 453.595C579.412 453.595 579.074 453.584 578.735 453.563H578.735L369.054 440.056C367.024 439.926 365.04 439.397 363.214 438.499C361.389 437.602 359.758 436.354 358.415 434.826C357.072 433.298 356.043 431.521 355.387 429.595C354.731 427.67 354.461 425.634 354.592 423.604L358.177 367.933C358.308 365.903 358.838 363.918 359.735 362.093C360.633 360.267 361.881 358.637 363.409 357.294C364.937 355.951 366.715 354.922 368.641 354.266C370.566 353.611 372.602 353.34 374.632 353.471L584.312 366.976C588.41 367.245 592.234 369.128 594.945 372.212C597.657 375.297 599.034 379.331 598.774 383.429L595.189 439.101C594.992 442.084 593.937 444.947 592.153 447.346C590.368 449.744 587.93 451.577 585.129 452.624C583.409 453.267 581.586 453.596 579.749 453.595V453.595Z" fill="#2F2E41"/>
<path d="M337.691 103.872C352.537 91.1033 372.925 102.526 389.951 100.526C406.24 98.6132 419.102 84.0018 422.388 68.4791C426.221 50.3691 416.822 32.2256 402.967 20.9344C387.792 8.56773 367.667 5.01756 348.596 7.30548C326.738 9.92771 306.749 20.1164 288.812 32.4402C271.498 43.9671 255.577 57.4587 241.365 72.6457C228.638 86.701 217.856 103.455 214.413 122.368C211.284 139.556 213.673 158.603 223.834 173.164C229.222 180.627 236.443 186.576 244.799 190.436C253.512 194.714 262.806 197.773 271.247 202.61C284.01 209.924 296.415 225.09 292.417 240.873C291.56 244.32 289.868 247.504 287.491 250.144C284.635 253.315 279.484 249.125 282.347 245.946C287.377 240.363 287.178 232.917 284.498 226.252C281.311 218.74 275.667 212.534 268.492 208.65C259.656 203.598 249.9 200.48 240.844 195.878C232.176 191.675 224.652 185.439 218.912 177.702C208.073 162.64 204.831 143.036 207.289 124.902C209.949 105.277 220.032 87.4444 232.672 72.5005C246.427 56.2373 263.324 42.471 280.585 30.1038C299.107 16.8337 319.57 5.61475 342.213 1.55704C361.841 -1.96037 383.117 0.205166 400.281 10.9017C416.303 20.8863 428.588 38.0617 429.81 57.2535C430.249 65.9858 428.353 74.6772 424.317 82.4333C420.282 90.1894 414.252 96.7301 406.849 101.382C399.253 105.928 390.422 107.974 381.601 107.232C372.17 106.628 362.731 103.74 353.241 104.542C348.946 104.803 344.854 106.456 341.583 109.252C338.339 112.042 334.474 106.639 337.691 103.872V103.872Z" fill="#2F2E41"/>
</svg>
