<svg width="170" height="32" viewBox="0 0 170 32" fill="none" xmlns="http://www.w3.org/2000/svg">
<path d="M12.6451 8.26044C14.7035 8.26044 16.2612 8.69159 17.3182 9.55388C18.403 10.4162 19.1401 11.5705 19.5296 13.017C19.9468 14.4356 20.1554 16.0211 20.1554 17.7735V28.4548C20.1554 29.1781 19.919 29.79 19.4461 30.2907C18.9732 30.7636 18.3752 31 17.652 31C16.9288 31 16.3307 30.7636 15.8579 30.2907C15.385 29.79 15.1485 29.1781 15.1485 28.4548V17.7735C15.1485 16.8556 15.0234 16.035 14.773 15.3118C14.5505 14.5608 14.1333 13.9627 13.5213 13.5177C12.9094 13.0726 12.0332 12.8501 10.8927 12.8501C9.78007 12.8501 8.83432 13.0726 8.05548 13.5177C7.30444 13.9627 6.72031 14.5608 6.30307 15.3118C5.91364 16.035 5.71893 16.8556 5.71893 17.7735V28.4548C5.71893 29.1781 5.4825 29.79 5.00963 30.2907C4.53675 30.7636 3.93871 31 3.2155 31C2.49228 31 1.89424 30.7636 1.42136 30.2907C0.948493 29.79 0.712058 29.1781 0.712058 28.4548V11.2228C0.712058 10.4996 0.948493 9.90158 1.42136 9.42871C1.89424 8.92802 2.49228 8.67768 3.2155 8.67768C3.93871 8.67768 4.53675 8.92802 5.00963 9.42871C5.4825 9.90158 5.71893 10.4996 5.71893 11.2228V13.017L5.09307 12.8918C5.34342 12.4189 5.70503 11.9182 6.1779 11.3897C6.65077 10.8334 7.20709 10.3188 7.84686 9.84595C8.48662 9.37308 9.20984 8.99756 10.0165 8.7194C10.8232 8.41343 11.6994 8.26044 12.6451 8.26044ZM42.1316 8.67768C42.8548 8.67768 43.4528 8.92802 43.9257 9.42871C44.3986 9.90158 44.635 10.4996 44.635 11.2228V21.8207C44.635 24.7692 43.8144 27.1058 42.1733 28.8304C40.5321 30.5549 38.1678 31.4172 35.0802 31.4172C31.9926 31.4172 29.6283 30.5549 27.9871 28.8304C26.3738 27.1058 25.5672 24.7692 25.5672 21.8207V11.2228C25.5672 10.4996 25.8036 9.90158 26.2765 9.42871C26.7493 8.92802 27.3474 8.67768 28.0706 8.67768C28.7938 8.67768 29.3918 8.92802 29.8647 9.42871C30.3376 9.90158 30.574 10.4996 30.574 11.2228V21.8207C30.574 23.5175 30.9495 24.7831 31.7006 25.6176C32.4516 26.4243 33.5782 26.8276 35.0802 26.8276C36.6101 26.8276 37.7505 26.4243 38.5016 25.6176C39.2526 24.7831 39.6281 23.5175 39.6281 21.8207V11.2228C39.6281 10.4996 39.8646 9.90158 40.3374 9.42871C40.8103 8.92802 41.4083 8.67768 42.1316 8.67768ZM55.4796 28.4548C55.4796 29.1781 55.2293 29.79 54.7286 30.2907C54.2557 30.7636 53.6577 31 52.9345 31C52.2391 31 51.6549 30.7636 51.1821 30.2907C50.7092 29.79 50.4728 29.1781 50.4728 28.4548V2.66943C50.4728 1.94621 50.7092 1.34817 51.1821 0.875298C51.6828 0.374612 52.2947 0.124269 53.0179 0.124269C53.7411 0.124269 54.3253 0.374612 54.7703 0.875298C55.2432 1.34817 55.4796 1.94621 55.4796 2.66943V28.4548ZM66.7256 28.4548C66.7256 29.1781 66.4752 29.79 65.9745 30.2907C65.5017 30.7636 64.9036 31 64.1804 31C63.485 31 62.9009 30.7636 62.428 30.2907C61.9551 29.79 61.7187 29.1781 61.7187 28.4548V2.66943C61.7187 1.94621 61.9551 1.34817 62.428 0.875298C62.9287 0.374612 63.5406 0.124269 64.2638 0.124269C64.9871 0.124269 65.5712 0.374612 66.0162 0.875298C66.4891 1.34817 66.7256 1.94621 66.7256 2.66943V28.4548ZM84.1049 8.26044C86.052 8.26044 87.7905 8.76113 89.3204 9.7625C90.8781 10.7361 92.102 12.0851 92.9921 13.8097C93.91 15.5343 94.369 17.5371 94.369 19.818C94.369 22.0989 93.91 24.1155 92.9921 25.868C92.102 27.5925 90.892 28.9555 89.3621 29.9569C87.86 30.9305 86.1633 31.4172 84.2718 31.4172C83.1591 31.4172 82.1161 31.2364 81.1425 30.8748C80.1689 30.5132 79.3066 30.0543 78.5556 29.4979C77.8324 28.9416 77.2622 28.3853 76.8449 27.829C76.4555 27.2448 76.2608 26.7581 76.2608 26.3686L77.5542 25.8262V28.8721C77.5542 29.5953 77.3178 30.2072 76.8449 30.7079C76.3721 31.1808 75.774 31.4172 75.0508 31.4172C74.3276 31.4172 73.7295 31.1808 73.2567 30.7079C72.7838 30.2351 72.5474 29.6231 72.5474 28.8721V2.66943C72.5474 1.94621 72.7838 1.34817 73.2567 0.875298C73.7295 0.374612 74.3276 0.124269 75.0508 0.124269C75.774 0.124269 76.3721 0.374612 76.8449 0.875298C77.3178 1.34817 77.5542 1.94621 77.5542 2.66943V13.2673L76.8449 12.8918C76.8449 12.5302 77.0396 12.099 77.4291 11.5984C77.8185 11.0699 78.347 10.5553 79.0146 10.0546C79.6822 9.52607 80.4471 9.09492 81.3094 8.76113C82.1995 8.42734 83.1313 8.26044 84.1049 8.26044ZM83.479 12.8501C82.2551 12.8501 81.1842 13.1561 80.2663 13.768C79.3484 14.38 78.6251 15.2144 78.0966 16.2714C77.596 17.3006 77.3456 18.4828 77.3456 19.818C77.3456 21.1253 77.596 22.3214 78.0966 23.4062C78.6251 24.4632 79.3484 25.2977 80.2663 25.9097C81.1842 26.5216 82.2551 26.8276 83.479 26.8276C84.7029 26.8276 85.7599 26.5216 86.6501 25.9097C87.568 25.2977 88.2773 24.4632 88.778 23.4062C89.3065 22.3214 89.5707 21.1253 89.5707 19.818C89.5707 18.4828 89.3065 17.3006 88.778 16.2714C88.2773 15.2144 87.568 14.38 86.6501 13.768C85.7599 13.1561 84.7029 12.8501 83.479 12.8501ZM117.022 8.26044C117.745 8.26044 118.343 8.49688 118.816 8.96975C119.289 9.44262 119.526 10.0546 119.526 10.8056V28.4548C119.526 29.1781 119.289 29.79 118.816 30.2907C118.343 30.7636 117.745 31 117.022 31C116.299 31 115.701 30.7636 115.228 30.2907C114.755 29.79 114.519 29.1781 114.519 28.4548V26.4104L115.437 26.7859C115.437 27.1475 115.242 27.5925 114.853 28.121C114.463 28.6217 113.935 29.1224 113.267 29.6231C112.599 30.1238 111.807 30.5549 110.889 30.9166C109.999 31.2503 109.025 31.4172 107.968 31.4172C106.049 31.4172 104.31 30.9305 102.753 29.9569C101.195 28.9555 99.9571 27.5925 99.0391 25.868C98.149 24.1155 97.704 22.1128 97.704 19.8597C97.704 17.5788 98.149 15.576 99.0391 13.8515C99.9571 12.099 101.181 10.7361 102.711 9.7625C104.241 8.76113 105.937 8.26044 107.801 8.26044C108.997 8.26044 110.096 8.44124 111.097 8.80285C112.099 9.16446 112.961 9.62342 113.684 10.1797C114.435 10.7361 115.006 11.3063 115.395 11.8904C115.812 12.4467 116.021 12.9196 116.021 13.309L114.519 13.8515V10.8056C114.519 10.0824 114.755 9.48434 115.228 9.01147C115.701 8.51078 116.299 8.26044 117.022 8.26044ZM108.594 26.8276C109.818 26.8276 110.889 26.5216 111.807 25.9097C112.725 25.2977 113.434 24.4632 113.935 23.4062C114.463 22.3492 114.727 21.1671 114.727 19.8597C114.727 18.5245 114.463 17.3284 113.935 16.2714C113.434 15.2144 112.725 14.38 111.807 13.768C110.889 13.1561 109.818 12.8501 108.594 12.8501C107.398 12.8501 106.341 13.1561 105.423 13.768C104.505 14.38 103.782 15.2144 103.253 16.2714C102.753 17.3284 102.502 18.5245 102.502 19.8597C102.502 21.1671 102.753 22.3492 103.253 23.4062C103.782 24.4632 104.505 25.2977 105.423 25.9097C106.341 26.5216 107.398 26.8276 108.594 26.8276ZM136.88 8.26044C138.938 8.26044 140.496 8.69159 141.553 9.55388C142.638 10.4162 143.375 11.5705 143.764 13.017C144.182 14.4356 144.39 16.0211 144.39 17.7735V28.4548C144.39 29.1781 144.154 29.79 143.681 30.2907C143.208 30.7636 142.61 31 141.887 31C141.163 31 140.565 30.7636 140.093 30.2907C139.62 29.79 139.383 29.1781 139.383 28.4548V17.7735C139.383 16.8556 139.258 16.035 139.008 15.3118C138.785 14.5608 138.368 13.9627 137.756 13.5177C137.144 13.0726 136.268 12.8501 135.127 12.8501C134.015 12.8501 133.069 13.0726 132.29 13.5177C131.539 13.9627 130.955 14.5608 130.538 15.3118C130.148 16.035 129.954 16.8556 129.954 17.7735V28.4548C129.954 29.1781 129.717 29.79 129.244 30.2907C128.771 30.7636 128.173 31 127.45 31C126.727 31 126.129 30.7636 125.656 30.2907C125.183 29.79 124.947 29.1781 124.947 28.4548V11.2228C124.947 10.4996 125.183 9.90158 125.656 9.42871C126.129 8.92802 126.727 8.67768 127.45 8.67768C128.173 8.67768 128.771 8.92802 129.244 9.42871C129.717 9.90158 129.954 10.4996 129.954 11.2228V13.017L129.328 12.8918C129.578 12.4189 129.94 11.9182 130.413 11.3897C130.885 10.8334 131.442 10.3188 132.082 9.84595C132.721 9.37308 133.445 8.99756 134.251 8.7194C135.058 8.41343 135.934 8.26044 136.88 8.26044ZM152.723 31C151.999 31 151.401 30.7636 150.928 30.2907C150.456 29.79 150.219 29.1781 150.219 28.4548V2.66943C150.219 1.94621 150.456 1.34817 150.928 0.875298C151.401 0.374612 151.999 0.124269 152.723 0.124269C153.446 0.124269 154.044 0.374612 154.517 0.875298C154.99 1.34817 155.226 1.94621 155.226 2.66943V28.4548C155.226 29.1781 154.99 29.79 154.517 30.2907C154.044 30.7636 153.446 31 152.723 31ZM165.991 8.67768C166.631 8.67768 167.187 8.94193 167.66 9.47043C168.133 9.99894 168.369 10.5135 168.369 11.0142C168.369 11.6818 168.035 12.3077 167.368 12.8918L154.809 24.4493L154.6 18.6914L164.155 9.47043C164.683 8.94193 165.295 8.67768 165.991 8.67768ZM166.617 30.9583C165.893 30.9583 165.281 30.6801 164.781 30.1238L157.062 21.9459L160.859 18.4411L168.369 26.619C168.898 27.1753 169.162 27.8012 169.162 28.4966C169.162 29.2198 168.87 29.8178 168.286 30.2907C167.729 30.7357 167.173 30.9583 166.617 30.9583Z" fill="white"/>
</svg>
